HIERARCHY
ROOT Hips
{
	OFFSET 0.00000 0.00000 0.00000
	CHANNELS 6 Xposition Yposition Zposition Zrotation Yrotation Xrotation 
	JOINT LHipJoint
	{
		OFFSET 0 0 0
		CHANNELS 3 Zrotation Yrotation Xrotation
		JOINT LeftHip
		{
			OFFSET 1.27966 -1.91611 0.81506
			CHANNELS 3 Zrotation Yrotation Xrotation
			JOINT LeftKnee
			{
				OFFSET 2.49511 -6.85528 0.00000
				CHANNELS 3 Zrotation Yrotation Xrotation
				JOINT LeftAnkle
				{
					OFFSET 2.67286 -7.34045 0.00000
					CHANNELS 3 Zrotation Yrotation Xrotation
					JOINT LeftToe
					{
						OFFSET 0.22740 -0.62477 2.32102
						CHANNELS 3 Zrotation Yrotation Xrotation
						End Site
						{
							OFFSET 0.00000 -0.00000 1.20480
						}
					}
				}
			}
		}
	}
	JOINT RHipJoint
	{
		OFFSET 0 0 0
		CHANNELS 3 Zrotation Yrotation Xrotation
		JOINT RightHip
		{
			OFFSET -1.09666 -1.91611 0.81505
			CHANNELS 3 Zrotation Yrotation Xrotation
			JOINT RightKnee
			{
				OFFSET -2.51373 -6.90642 0.00000
				CHANNELS 3 Zrotation Yrotation Xrotation
				JOINT RightAnkle
				{
					OFFSET -2.70173 -7.42295 0.00000
					CHANNELS 3 Zrotation Yrotation Xrotation
					JOINT RightToe
					{
						OFFSET -0.22214 -0.61032 2.18267
						CHANNELS 3 Zrotation Yrotation Xrotation
						End Site
						{
							OFFSET -0.00000 -0.00000 1.13683
						}
					}
				}
			}
		}
	}
	JOINT lowerback
	{
		OFFSET 0 0 0
		CHANNELS 3 Zrotation Yrotation Xrotation
		JOINT Chest
		{
			OFFSET -0.00990 2.16804 -0.08389
			CHANNELS 3 Zrotation Yrotation Xrotation
			JOINT Chest2
			{
				OFFSET 0.06407 2.15456 0.07285
				CHANNELS 3 Zrotation Yrotation Xrotation
				JOINT lowerneck
				{
					OFFSET 0 0 0
					CHANNELS 3 Zrotation Yrotation Xrotation
					JOINT Neck
					{
						OFFSET -0.16931 1.61602 0.24462
						CHANNELS 3 Zrotation Yrotation Xrotation
						JOINT Head
						{
							OFFSET 0.21556 1.63376 -0.33896
							CHANNELS 3 Zrotation Yrotation Xrotation
							End Site
							{
								OFFSET 0.08444 1.69244 -0.14900
							}
						}
					}
				}
				JOINT LeftCollar
				{
					OFFSET 0 0 0
					CHANNELS 3 Zrotation Yrotation Xrotation
					JOINT LeftShoulder
					{
						OFFSET 2.89000 1.40150 -0.54392
CHANNELS 3 Zrotation Xrotation Yrotation
						JOINT LeftElbow
						{
OFFSET 0 -5.107550 0.000000
CHANNELS 3 Zrotation Xrotation Yrotation
							JOINT LeftWrist
							{
OFFSET 0 -3.362530 0.000000
CHANNELS 3 Zrotation Xrotation Yrotation
								JOINT lhand
								{
									OFFSET 0 0 0
CHANNELS 3 Zrotation Xrotation Yrotation
									JOINT LFingers
									{
OFFSET 0 -0.619090 0.000000
CHANNELS 3 Zrotation Xrotation Yrotation
										End Site
										{
OFFSET 0 -0.499120 0.000000
										}
									}
								}
								JOINT LThumb
								{
OFFSET 0 0.000000 0.000000
CHANNELS 3 Zrotation Xrotation Yrotation
									End Site
									{
OFFSET 0 -0.506750 0.506750
									}
								}
							}
						}
					}
				}
				JOINT RightCollar
				{
					OFFSET 0 0 0
					CHANNELS 3 Zrotation Yrotation Xrotation
					JOINT RightShoulder
					{
						OFFSET -2.65771 1.70968 -0.54312
CHANNELS 3 Zrotation Xrotation Yrotation
						JOINT RightElbow
						{
OFFSET 0 -5.273870 0.000000
CHANNELS 3 Zrotation Xrotation Yrotation
							JOINT RightWrist
							{
OFFSET 0 -3.401440 0.000000
CHANNELS 3 Zrotation Xrotation Yrotation
								JOINT rhand
								{
									OFFSET 0 0 0
CHANNELS 3 Zrotation Xrotation Yrotation
									JOINT RFingers
									{
OFFSET 0 -0.742820 0.000000
CHANNELS 3 Zrotation Xrotation Yrotation
										End Site
										{
OFFSET 0 -0.598880 0.000000
										}
									}
								}
								JOINT RThumb
								{
OFFSET 0 0.000000 0.000000
CHANNELS 3 Zrotation Xrotation Yrotation
									End Site
									{
OFFSET 0 -0.608030 0.608030
									}
								}
							}
						}
					}
				}
			}
		}
	}
}
MOTION
Frames: 8
Frame Time: 0.008333333333333333
-0.039600 18.071400 -3.400200 -5.735000 0.809100 0.753400 0.000000 0.000000 0.000000 -11.180100 -0.777600 -3.932200 1.972500 8.808600 25.198300 1.049900 -3.277000 -18.547900 0.925900 -6.130200 -17.162500 0.000000 0.000000 0.000000 25.224300 4.153500 -4.518900 -1.948700 -8.758300 25.042200 -0.814800 -4.445800 -19.227700 -0.572400 4.844900 -13.466900 2.262700 0.046100 4.630200 4.003600 0.487900 -4.049700 2.874100 0.241700 -6.854400 -18.490300 -9.165300 -14.820300 12.626400 -11.711800 24.404400 6.000600 -5.599400 12.443800 0.000000 -0.000000 0.000000 -1.828200 8.431800 -2.762100 16.134600 -25.702800 3.704100 16.639700 8.961200 -26.590100 0.000000 0.000000 0.000000 -7.125000 0.000000 0.000000 -14.746900 56.949800 4.383400 0.000000 -0.000000 0.000000 -3.251500 4.426100 10.466200 -14.021700 -22.765700 -2.836500 -19.916000 1.155200 -7.865500 0.000000 0.000000 0.000000 7.125000 0.000000 -0.000000 5.022900 21.633300 2.828000
-0.046090 18.068862 -3.468556 -5.038752 0.291510 0.756604 0.000000 0.000000 0.000000 -11.996766 -0.785452 -4.070991 1.960031 8.782293 25.116509 1.039028 -3.047834 -18.486689 0.853809 -5.892808 -16.473843 0.000000 0.000000 0.000000 24.395780 4.420736 -5.098922 -2.043096 -8.955322 25.655583 -0.820349 -4.238977 -19.156068 -0.640349 5.119632 -14.250041 2.012468 0.070366 5.547430 3.947091 0.475112 -2.674367 2.939250 0.241347 -5.923966 -17.389246 -7.975764 -17.969448 11.687599 -9.435950 24.915115 5.824626 -4.479087 12.725002 0.000000 0.000000 0.000000 -2.166576 10.296721 -13.043819 16.938294 -26.776319 4.059471 15.078322 8.489897 -30.806192 0.000000 0.000000 0.000000 -7.125000 0.000000 0.000000 -19.199941 60.644569 7.482441 0.000000 0.000000 0.000000 -3.668488 4.350967 9.185561 -12.809976 -21.008167 -2.384737 -20.720729 1.953444 -10.398838 0.000000 0.000000 0.000000 7.125000 0.000000 0.000000 4.471272 18.897859 2.790562
-0.016000 18.078424 -3.591003 -4.602707 1.230323 0.765622 0.000000 0.000000 0.000000 -12.447002 -0.876353 -4.650271 1.946518 8.753806 25.028098 0.986062 -3.911394 -17.864362 0.799732 -5.707754 -15.938810 0.000000 0.000000 0.000000 23.726264 3.882584 -5.854751 -2.076541 -9.023782 25.869856 -0.790256 -4.436575 -18.974330 -0.654609 5.174928 -14.408223 1.696756 -0.035937 6.601737 3.944764 0.327764 -2.111481 3.130841 0.179116 -5.929882 -17.550938 -7.881230 -18.895332 11.913917 -9.091968 24.488618 5.979306 -4.275038 12.702596 0.000000 0.000000 0.000000 -2.812978 9.941162 -14.555071 17.462469 -27.463428 4.298464 13.421461 7.504529 -31.502477 0.000000 0.000000 0.000000 -7.125000 0.000000 0.000000 -21.527957 60.894574 8.565414 0.000000 0.000000 0.000000 -3.831757 4.170849 10.631558 -13.356177 -21.806881 -2.584154 -21.048732 1.248407 -10.671886 0.000000 0.000000 0.000000 7.125000 0.000000 0.000000 4.245421 18.582061 2.678587
-0.023051 18.077500 -3.660756 -4.778759 1.246739 0.749400 0.000000 0.000000 0.000000 -12.203422 -1.035567 -5.115082 2.005264 8.876958 25.411319 0.973309 -3.920952 -17.743026 0.801868 -5.715415 -15.960912 0.000000 0.000000 0.000000 23.956475 4.172677 -6.089389 -2.091187 -9.053374 25.962563 -0.764722 -4.714649 -18.890453 -0.666495 5.220821 -14.539636 1.586281 -0.087201 6.704372 4.126454 0.281619 -2.496481 3.398892 0.167656 -6.396463 -16.823229 -7.105838 -18.966698 11.653110 -8.054062 23.841968 5.916347 -3.762283 12.217643 0.000000 0.000000 0.000000 -2.274246 10.674520 -13.840517 17.461359 -27.461911 4.297899 15.399084 8.283657 -30.006490 0.000000 0.000000 0.000000 -7.125000 0.000000 0.000000 -18.253980 59.965687 6.802573 0.000000 0.000000 0.000000 -4.336574 4.409318 12.846193 -14.477597 -23.413353 -3.015262 -20.184644 -0.640599 -9.356992 0.000000 0.000000 0.000000 7.125000 0.000000 0.000000 4.836678 20.040011 2.896696
-0.000918 18.063959 -3.561059 -4.651218 2.030302 0.146520 0.000000 0.000000 0.000000 -12.408029 -1.072923 -4.110889 1.978477 8.821100 25.237319 0.977189 -4.381077 -17.728639 0.753094 -5.542801 -15.463457 0.000000 0.000000 0.000000 23.826652 3.395668 -5.071555 -2.059200 -8.988224 25.758547 -0.804976 -4.856662 -19.388746 -0.669777 5.233642 -14.576127 2.149315 0.063702 4.914084 3.727993 0.425638 -2.437888 2.629786 0.207425 -5.306913 -16.951978 -6.959178 -18.501266 11.817219 -7.943519 24.001398 6.036323 -3.722683 12.181527 0.000000 0.000000 0.000000 -1.763734 9.582638 -15.065016 17.033148 -26.901403 4.102330 15.865806 8.470278 -29.686309 0.000000 0.000000 0.000000 -7.125000 0.000000 0.000000 -17.525016 59.770043 6.438094 0.000000 0.000000 0.000000 -3.872999 4.905505 10.843966 -13.348596 -21.795809 -2.581313 -20.738294 1.430170 -10.971497 0.000000 0.000000 0.000000 7.125000 0.000000 0.000000 4.471729 18.289298 2.851228
0.049701 18.052197 -3.555621 -4.095183 1.245527 -0.277544 0.000000 0.000000 0.000000 -13.254652 -0.362610 -3.427905 1.938901 8.737694 24.978227 1.001973 -4.119012 -17.988067 0.798480 -5.703131 -15.925481 0.000000 0.000000 0.000000 22.934129 3.195616 -4.831746 -2.118255 -9.108211 26.134411 -0.861805 -3.934018 -19.386482 -0.647640 5.148015 -14.331189 1.649911 -0.034221 4.937379 3.430947 0.262061 -2.881750 2.621936 0.139383 -5.780634 -17.564839 -7.217967 -18.212388 11.977886 -8.187903 23.486449 6.140896 -3.871869 12.007965 0.000000 0.000000 0.000000 -1.627381 10.270585 -15.186626 16.602715 -26.331035 3.909481 15.447988 8.522496 -30.052737 0.000000 0.000000 0.000000 -7.125000 0.000000 0.000000 -18.235412 60.021028 6.819331 0.000000 0.000000 0.000000 -4.237110 4.333641 11.976508 -13.328539 -21.766702 -2.573832 -20.398756 1.445902 -10.246665 0.000000 0.000000 0.000000 7.125000 0.000000 0.000000 4.696608 19.083505 2.912767
0.051012 18.062838 -3.669948 -4.628225 0.660426 0.040384 0.000000 0.000000 0.000000 -12.632175 -0.507638 -4.451363 2.022412 8.912538 25.522186 0.992079 -3.839282 -17.929533 0.754026 -5.546005 -15.472617 0.000000 0.000000 0.000000 23.485751 3.759250 -5.481843 -2.109998 -9.091581 26.082351 -0.806909 -3.789325 -18.752665 -0.646829 5.144890 -14.322417 1.481297 -0.011044 5.595799 3.381189 0.324865 -3.475172 2.672808 0.179636 -6.790475 -17.690916 -7.508577 -16.242284 12.162237 -8.962746 23.056567 6.106060 -4.270981 11.607362 0.000000 0.000000 0.000000 -0.812336 10.914921 -15.943182 17.166026 -27.076135 4.162616 15.829301 8.303559 -28.432036 0.000000 0.000000 0.000000 -7.125000 0.000000 0.000000 -16.712090 58.560546 5.643049 0.000000 0.000000 0.000000 -3.644347 5.931160 12.417923 -13.639317 -22.216741 -2.690245 -20.365050 1.398875 -9.751192 0.000000 0.000000 0.000000 7.125000 0.000000 0.000000 4.712824 19.610368 2.867288
0.101334 18.053684 -3.703894 -4.268252 0.124988 -0.221605 0.000000 0.000000 0.000000 -13.229303 0.012953 -4.168112 1.992332 8.850149 25.327713 0.979177 -3.678484 -17.830045 0.749745 -5.530635 -15.428357 0.000000 0.000000 0.000000 22.894547 3.984724 -5.364267 -2.145224 -9.162248 26.304240 -0.810216 -3.665987 -18.714514 -0.725415 5.442221 -15.174363 1.229408 -0.153891 5.597287 3.346439 0.088763 -2.918385 2.794967 0.069535 -6.191936 -17.499125 -7.275158 -16.103473 12.170285 -8.750459 23.539455 6.135854 -4.170299 11.714293 0.000000 0.000000 0.000000 -1.170593 10.795754 -14.659238 16.715422 -26.481085 3.959600 15.055277 8.645293 -30.631963 0.000000 0.000000 0.000000 -7.125000 0.000000 0.000000 -19.089790 60.475239 7.360398 0.000000 0.000000 0.000000 -3.347412 5.126723 10.670302 -13.057539 -21.371414 -2.474183 -19.863250 2.084241 -10.330296 0.000000 0.000000 0.000000 7.125000 0.000000 0.000000 5.077704 19.034949 3.156340
